<svg xmlns="http://www.w3.org/2000/svg" xmlns:xlink="http://www.w3.org/1999/xlink" width="1280" zoomAndPan="magnify" viewBox="0 0 960 540.000001" height="720" preserveAspectRatio="xMidYMid meet" version="1.0"><path fill="#292c27" d="M 114.550781 362.082031 L 114.550781 182.414062 L 152.574219 182.414062 L 152.574219 256.546875 L 229.757812 256.546875 L 229.757812 182.414062 L 267.691406 182.414062 L 267.691406 362.082031 L 229.757812 362.082031 L 229.757812 287.867188 L 152.574219 287.867188 L 152.574219 362.082031 Z M 298.339844 362.082031 L 298.339844 227.332031 L 335.746094 227.332031 L 335.746094 362.082031 Z M 317.128906 209.960938 C 311.570312 209.960938 306.796875 208.121094 302.816406 204.4375 C 298.894531 200.691406 296.933594 196.21875 296.933594 191.011719 C 296.933594 185.867188 298.894531 181.449219 302.816406 177.765625 C 306.796875 174.023438 311.570312 172.152344 317.128906 172.152344 C 322.691406 172.152344 327.433594 174.023438 331.355469 177.765625 C 335.335938 181.449219 337.328125 185.867188 337.328125 191.011719 C 337.328125 196.21875 335.335938 200.691406 331.355469 204.4375 C 327.433594 208.121094 322.691406 209.960938 317.128906 209.960938 Z M 317.128906 209.960938 " fill-opacity="1" fill-rule="nonzero"/><path fill="#30af5b" d="M 403.121094 182.414062 L 403.121094 362.082031 L 365.710938 362.082031 L 365.710938 182.414062 Z M 433.085938 362.082031 L 433.085938 227.332031 L 470.492188 227.332031 L 470.492188 362.082031 Z M 451.875 209.960938 C 446.316406 209.960938 441.542969 208.121094 437.5625 204.4375 C 433.640625 200.691406 431.679688 196.21875 431.679688 191.011719 C 431.679688 185.867188 433.640625 181.449219 437.5625 177.765625 C 441.542969 174.023438 446.316406 172.152344 451.875 172.152344 C 457.4375 172.152344 462.179688 174.023438 466.101562 177.765625 C 470.082031 181.449219 472.074219 185.867188 472.074219 191.011719 C 472.074219 196.21875 470.082031 200.691406 466.101562 204.4375 C 462.179688 208.121094 457.4375 209.960938 451.875 209.960938 Z M 537.867188 284.179688 L 537.867188 362.082031 L 500.457031 362.082031 L 500.457031 227.332031 L 536.109375 227.332031 L 536.109375 251.105469 L 537.691406 251.105469 C 540.675781 243.269531 545.679688 237.070312 552.707031 232.507812 C 559.730469 227.886719 568.246094 225.578125 578.257812 225.578125 C 587.625 225.578125 595.792969 227.625 602.757812 231.71875 C 609.722656 235.8125 615.140625 241.660156 619.003906 249.265625 C 622.867188 256.808594 624.796875 265.816406 624.796875 276.285156 L 624.796875 362.082031 L 587.390625 362.082031 L 587.390625 282.953125 C 587.449219 274.707031 585.339844 268.273438 581.070312 263.652344 C 576.796875 258.972656 570.910156 256.632812 563.417969 256.632812 C 558.382812 256.632812 553.933594 257.714844 550.070312 259.878906 C 546.265625 262.042969 543.28125 265.203125 541.113281 269.355469 C 539.007812 273.449219 537.925781 278.390625 537.867188 284.179688 Z M 688.175781 323.308594 L 688.265625 278.476562 L 693.707031 278.476562 L 736.910156 227.332031 L 779.851562 227.332031 L 721.808594 295.058594 L 712.9375 295.058594 Z M 654.28125 362.082031 L 654.28125 182.414062 L 691.6875 182.414062 L 691.6875 362.082031 Z M 738.578125 362.082031 L 698.890625 303.394531 L 723.828125 276.988281 L 782.398438 362.082031 Z M 820.066406 364.363281 C 814.273438 364.363281 809.296875 362.316406 805.140625 358.222656 C 801.042969 354.070312 798.992188 349.097656 798.992188 343.308594 C 798.992188 337.578125 801.042969 332.664062 805.140625 328.570312 C 809.296875 324.476562 814.273438 322.429688 820.066406 322.429688 C 825.6875 322.429688 830.605469 324.476562 834.820312 328.570312 C 839.035156 332.664062 841.144531 337.578125 841.144531 343.308594 C 841.144531 347.167969 840.148438 350.707031 838.15625 353.925781 C 836.226562 357.082031 833.679688 359.628906 830.519531 361.558594 C 827.355469 363.429688 823.875 364.363281 820.066406 364.363281 Z M 820.066406 364.363281 " fill-opacity="1" fill-rule="nonzero"/></svg>