<svg xmlns="http://www.w3.org/2000/svg" xmlns:xlink="http://www.w3.org/1999/xlink" width="1280" zoomAndPan="magnify" viewBox="0 0 960 540.000001" height="720" preserveAspectRatio="xMidYMid meet" version="1.0"><defs><g/><clipPath id="32ce270b4c"><path d="M 429 53.898438 L 511 53.898438 L 511 94 L 429 94 Z M 429 53.898438 " clip-rule="nonzero"/></clipPath><clipPath id="be4b3adf45"><path d="M 372.199219 106 L 425 106 L 425 202 L 372.199219 202 Z M 372.199219 106 " clip-rule="nonzero"/></clipPath><clipPath id="773d6a1981"><path d="M 454 228 L 533 228 L 533 269.5 L 454 269.5 Z M 454 228 " clip-rule="nonzero"/></clipPath><clipPath id="77a19d4c03"><path d="M 556 87 L 587.800781 87 L 587.800781 225 L 556 225 Z M 556 87 " clip-rule="nonzero"/></clipPath></defs><path fill="#ff5722" d="M 485.054688 96.757812 C 505.273438 103.390625 523.109375 115.226562 537.074219 130.648438 C 539.375 128.585938 542.105469 127.378906 545.042969 127.378906 C 545.90625 127.378906 546.746094 127.503906 547.566406 127.703125 C 552.738281 113.269531 554.574219 97.722656 552.210938 81.914062 C 552.199219 81.816406 552.171875 81.726562 552.160156 81.628906 C 542.722656 73.121094 531.773438 66.265625 519.765625 61.492188 C 506.945312 71.011719 495.160156 82.871094 485.054688 96.757812 Z M 485.054688 96.757812 " fill-opacity="1" fill-rule="nonzero"/><g clip-path="url(#32ce270b4c)"><path fill="#ff5722" d="M 436.164062 91.316406 C 439.863281 90.96875 443.589844 90.726562 447.378906 90.726562 C 456.984375 90.726562 466.3125 91.867188 475.265625 93.984375 C 485.613281 79.902344 497.691406 67.929688 510.820312 58.394531 C 501.054688 55.480469 490.710938 53.898438 480 53.898438 C 467.515625 53.898438 455.539062 56.046875 444.386719 59.949219 C 438.394531 68.0625 433.445312 76.96875 429.617188 86.453125 C 432.441406 87.4375 434.75 89.117188 436.164062 91.316406 Z M 436.164062 91.316406 " fill-opacity="1" fill-rule="nonzero"/></g><path fill="#ff5722" d="M 424.1875 110.148438 C 423.683594 110.269531 423.179688 110.367188 422.679688 110.449219 C 421.480469 117.25 420.820312 124.234375 420.820312 131.382812 C 420.820312 151.964844 426.050781 171.300781 435.167969 188.234375 C 437.132812 187.980469 439.171875 187.980469 441.234375 188.207031 C 442.332031 166.945312 447.628906 144.917969 457.636719 123.644531 C 460.84375 116.828125 464.433594 110.34375 468.324219 104.1875 C 459.664062 102.210938 450.644531 101.171875 441.382812 101.171875 C 439.722656 101.171875 438.085938 101.265625 436.445312 101.339844 C 434.378906 105.367188 429.902344 108.789062 424.1875 110.148438 Z M 424.1875 110.148438 " fill-opacity="1" fill-rule="nonzero"/><path fill="#ff5722" d="M 478.191406 106.925781 C 474.457031 112.894531 470.996094 119.164062 467.902344 125.753906 C 457.71875 147.402344 452.425781 169.824219 451.46875 191.429688 C 455.417969 193.574219 458.597656 196.546875 460.832031 199.9375 C 490.273438 193.667969 515.066406 177.769531 531.539062 156.667969 C 530.695312 154.0625 530.214844 151.175781 530.214844 148.128906 C 530.214844 145.664062 530.539062 143.304688 531.101562 141.109375 C 516.925781 125.460938 498.777344 113.503906 478.191406 106.925781 Z M 478.191406 106.925781 " fill-opacity="1" fill-rule="nonzero"/><g clip-path="url(#be4b3adf45)"><path fill="#ff5722" d="M 418.867188 199.796875 C 420.144531 196.777344 422.195312 194.292969 424.734375 192.378906 C 415.667969 175.472656 410.492188 156.167969 410.492188 135.640625 C 410.492188 126.78125 411.550781 118.179688 413.382812 109.871094 C 410.972656 109.09375 408.921875 107.824219 407.441406 106.160156 C 398.488281 108.777344 389.949219 112.355469 381.980469 116.84375 C 375.71875 130.507812 372.199219 145.691406 372.199219 161.703125 C 372.199219 170.902344 373.359375 179.832031 375.527344 188.355469 C 388.34375 195.304688 402.796875 199.960938 418.144531 201.863281 C 418.34375 201.167969 418.578125 200.480469 418.867188 199.796875 Z M 418.867188 199.796875 " fill-opacity="1" fill-rule="nonzero"/></g><path fill="#ff5722" d="M 545.042969 168.875 C 542.910156 168.875 540.886719 168.238281 539.054688 167.101562 C 521.992188 189.398438 495.710938 206.042969 464.449219 211.863281 C 464.398438 214.105469 463.96875 216.339844 463.0625 218.480469 C 462.617188 219.535156 462.054688 220.511719 461.433594 221.445312 C 482.238281 239.886719 509.441406 251.242188 539.324219 251.695312 C 547.851562 246.066406 555.527344 239.253906 562.121094 231.496094 C 562.355469 228.460938 562.519531 225.40625 562.519531 222.308594 C 562.519531 202.722656 557.773438 184.28125 549.511719 167.917969 C 548.101562 168.535156 546.597656 168.875 545.042969 168.875 Z M 545.042969 168.875 " fill-opacity="1" fill-rule="nonzero"/><g clip-path="url(#773d6a1981)"><path fill="#ff5722" d="M 454.171875 228.332031 C 457.164062 243.066406 462.40625 256.828125 469.726562 269 C 473.109375 269.316406 476.53125 269.5 480 269.5 C 498.992188 269.5 516.820312 264.574219 532.3125 255.957031 C 531.824219 255.960938 531.34375 256.003906 530.855469 256.003906 C 501.695312 256 474.992188 245.589844 454.171875 228.332031 Z M 454.171875 228.332031 " fill-opacity="1" fill-rule="nonzero"/></g><path fill="#ff5722" d="M 432.96875 228.070312 C 425.359375 224.855469 420.042969 218.730469 418.1875 212.039062 C 403.707031 209.417969 390.15625 204.3125 378.195312 197.15625 C 390.722656 233.125 421.753906 260.410156 459.890625 267.609375 C 453.019531 256.371094 447.96875 243.730469 444.816406 230.214844 C 440.964844 230.402344 436.902344 229.734375 432.96875 228.070312 Z M 432.96875 228.070312 " fill-opacity="1" fill-rule="nonzero"/><path fill="#ff5722" d="M 418.449219 86.050781 C 419.460938 85.808594 420.46875 85.652344 421.460938 85.554688 C 424.949219 77.972656 429.171875 70.800781 434.082031 64.160156 C 414.546875 73.371094 398.234375 88.273438 387.269531 106.738281 C 392.921875 103.5 398.867188 100.730469 405.039062 98.421875 C 405.796875 92.941406 411.109375 87.800781 418.449219 86.050781 Z M 418.449219 86.050781 " fill-opacity="1" fill-rule="nonzero"/><g clip-path="url(#77a19d4c03)"><path fill="#ff5722" d="M 587.800781 161.703125 C 587.800781 132.890625 576.476562 106.742188 558.0625 87.402344 C 558.46875 89.300781 558.824219 91.21875 559.117188 93.164062 C 561.21875 107.253906 559.980469 121.144531 556.027344 134.222656 C 558.40625 137.902344 559.871094 142.773438 559.871094 148.128906 C 559.871094 152.71875 558.796875 156.949219 556.988281 160.386719 C 564.347656 176.015625 568.511719 193.445312 568.511719 211.867188 C 568.511719 216 568.28125 220.074219 567.878906 224.101562 C 580.402344 206.484375 587.800781 184.964844 587.800781 161.703125 Z M 587.800781 161.703125 " fill-opacity="1" fill-rule="nonzero"/></g><path fill="#ff5722" d="M 436.789062 219.015625 C 443.152344 221.707031 450.179688 219.46875 452.484375 214.019531 C 454.789062 208.570312 451.496094 201.96875 445.132812 199.28125 C 438.769531 196.589844 431.742188 198.828125 429.4375 204.277344 C 427.132812 209.726562 430.425781 216.324219 436.789062 219.015625 Z M 436.789062 219.015625 " fill-opacity="1" fill-rule="nonzero"/><path fill="#ff5722" d="M 545.042969 156.917969 C 548.511719 156.917969 551.320312 152.984375 551.320312 148.128906 C 551.320312 143.273438 548.511719 139.335938 545.042969 139.335938 C 541.574219 139.335938 538.761719 143.273438 538.761719 148.128906 C 538.761719 152.984375 541.574219 156.917969 545.042969 156.917969 Z M 545.042969 156.917969 " fill-opacity="1" fill-rule="nonzero"/><path fill="#ff5722" d="M 422.535156 103.226562 C 426.324219 102.320312 428.847656 99.292969 428.171875 96.460938 C 427.5 93.628906 423.878906 92.066406 420.089844 92.96875 C 416.304688 93.875 413.78125 96.902344 414.453125 99.734375 C 415.128906 102.566406 418.75 104.128906 422.535156 103.226562 Z M 422.535156 103.226562 " fill-opacity="1" fill-rule="nonzero"/><g fill="#000000" fill-opacity="1"><g transform="translate(5.691751, 420.444568)"><g><path d="M 94.230469 -69.355469 C 94.230469 -90.28125 79.601562 -102.425781 50.480469 -102.425781 L 16.386719 -102.425781 C 14.046875 -102.425781 13.167969 -100.964844 13.167969 -98.621094 L 13.167969 -3.804688 C 13.167969 -1.464844 14.046875 0 16.386719 0 L 34.972656 0 C 37.3125 0 38.191406 -1.464844 38.191406 -3.804688 L 38.191406 -36.289062 L 50.480469 -36.289062 C 79.601562 -36.289062 94.230469 -48.433594 94.230469 -69.355469 Z M 38.191406 -100.378906 L 47.847656 -100.378906 C 64.089844 -100.378906 67.457031 -80.917969 67.457031 -69.355469 C 67.457031 -57.796875 64.089844 -38.335938 47.847656 -38.335938 L 38.191406 -38.335938 Z M 38.191406 -100.378906 "/></g></g></g><g fill="#000000" fill-opacity="1"><g transform="translate(107.23964, 420.444568)"><g><path d="M 88.964844 0 C 91.453125 0 92.183594 -2.046875 90.867188 -3.804688 L 74.039062 -25.898438 C 73.015625 -27.214844 71.257812 -27.214844 69.648438 -27.214844 C 55.308594 -27.214844 49.164062 -31.753906 45.359375 -36.289062 L 48.871094 -36.289062 C 71.699219 -36.289062 83.550781 -40.824219 83.550781 -59.261719 C 83.550781 -76.234375 71.699219 -80.769531 48.871094 -80.769531 L 14.925781 -80.769531 C 12.582031 -80.769531 11.707031 -79.308594 11.707031 -76.964844 L 11.707031 -3.804688 C 11.707031 -1.464844 12.582031 0 14.925781 0 L 33.507812 0 C 35.847656 0 36.726562 -1.464844 36.726562 -3.804688 L 36.726562 -36.289062 L 42.582031 -36.289062 L 64.96875 -3.804688 C 66.722656 -1.464844 69.066406 0 71.40625 0 Z M 44.042969 -78.722656 C 52.824219 -78.722656 58.382812 -77.550781 58.382812 -59.261719 C 58.382812 -40.96875 52.824219 -38.335938 44.042969 -38.335938 L 36.726562 -38.335938 L 36.726562 -78.722656 Z M 44.042969 -78.722656 "/></g></g></g><g fill="#000000" fill-opacity="1"><g transform="translate(205.422107, 420.444568)"><g><path d="M 53.261719 -82.234375 C 26.046875 -82.234375 5.851562 -76.234375 5.851562 -40.679688 C 5.851562 -5.121094 26.046875 0.878906 53.261719 0.878906 C 76.378906 0.878906 100.671875 -5.121094 100.671875 -40.679688 C 100.671875 -76.234375 76.378906 -82.234375 53.261719 -82.234375 Z M 53.261719 -80.476562 C 64.382812 -80.476562 72.867188 -63.503906 72.867188 -40.679688 C 72.867188 -17.851562 64.382812 -0.878906 53.261719 -0.878906 C 42.140625 -0.878906 33.65625 -17.851562 33.65625 -40.679688 C 33.65625 -63.503906 42.140625 -80.476562 53.261719 -80.476562 Z M 53.261719 -80.476562 "/></g></g></g><g fill="#000000" fill-opacity="1"><g transform="translate(316.334619, 420.444568)"><g><path d="M 104.035156 0 C 106.378906 0 107.253906 -1.464844 107.253906 -3.804688 L 107.253906 -76.964844 C 107.253906 -79.308594 106.378906 -80.769531 104.035156 -80.769531 L 92.183594 -80.769531 C 89.550781 -80.769531 88.378906 -80.332031 87.355469 -78.429688 L 62.917969 -39.359375 L 38.921875 -77.699219 C 37.605469 -79.894531 35.703125 -80.769531 33.507812 -80.769531 L 8.632812 -80.769531 C 7.316406 -80.769531 7.167969 -80.039062 7.167969 -79.160156 L 13.460938 -69.066406 L 13.460938 -3.804688 C 13.460938 -1.464844 14.339844 0 16.679688 0 L 25.167969 0 C 27.507812 0 28.386719 -1.023438 28.386719 -3.367188 C 28.386719 -6.144531 27.214844 -7.167969 25.605469 -9.804688 L 15.511719 -25.898438 L 15.511719 -65.699219 L 47.703125 -14.484375 L 50.042969 -14.484375 L 79.015625 -61.894531 L 79.015625 -3.804688 C 79.015625 -1.464844 79.894531 0 82.234375 0 Z M 104.035156 0 "/></g></g></g><g fill="#000000" fill-opacity="1"><g transform="translate(439.684541, 420.444568)"><g><path d="M 81.648438 -54.871094 C 81.648438 -75.796875 65.113281 -80.769531 44.191406 -80.769531 L 14.925781 -80.769531 C 12.582031 -80.769531 11.707031 -79.308594 11.707031 -76.964844 L 11.707031 -3.804688 C 11.707031 -1.464844 12.582031 0 14.925781 0 L 33.507812 0 C 35.847656 0 36.726562 -1.464844 36.726562 -3.804688 L 36.726562 -28.972656 L 44.191406 -28.972656 C 65.113281 -28.972656 81.648438 -33.945312 81.648438 -54.871094 Z M 36.726562 -78.722656 L 41.554688 -78.722656 C 51.359375 -78.722656 54.871094 -66.429688 54.871094 -54.871094 C 54.871094 -43.3125 51.359375 -31.019531 41.554688 -31.019531 L 36.726562 -31.019531 Z M 36.726562 -78.722656 "/></g></g></g><g fill="#000000" fill-opacity="1"><g transform="translate(528.648729, 420.444568)"><g><path d="M 76.964844 -76.964844 C 76.964844 -79.308594 76.089844 -80.769531 73.746094 -80.769531 L 6.144531 -80.769531 C 3.804688 -80.769531 2.925781 -79.308594 2.925781 -76.964844 L 2.925781 -50.773438 C 2.925781 -49.164062 3.367188 -48.140625 4.976562 -48.140625 L 5.851562 -48.140625 C 7.167969 -48.140625 8.632812 -50.042969 9.949219 -51.945312 L 27.507812 -78.722656 L 28.679688 -78.722656 L 28.679688 -3.804688 C 28.679688 -1.464844 29.558594 0 31.898438 0 L 47.992188 0 C 50.335938 0 51.214844 -1.464844 51.214844 -3.804688 L 51.214844 -78.722656 L 52.382812 -78.722656 L 69.941406 -51.945312 C 71.257812 -50.042969 72.722656 -48.140625 74.039062 -48.140625 L 74.917969 -48.140625 C 76.527344 -48.140625 76.964844 -49.164062 76.964844 -50.773438 Z M 76.964844 -76.964844 "/></g></g></g><g fill="#000000" fill-opacity="1"><g transform="translate(612.93058, 420.444568)"><g><path d="M 53.261719 -82.234375 C 26.046875 -82.234375 5.851562 -76.234375 5.851562 -40.679688 C 5.851562 -5.121094 26.046875 0.878906 53.261719 0.878906 C 76.378906 0.878906 100.671875 -5.121094 100.671875 -40.679688 C 100.671875 -76.234375 76.378906 -82.234375 53.261719 -82.234375 Z M 53.261719 -80.476562 C 64.382812 -80.476562 72.867188 -63.503906 72.867188 -40.679688 C 72.867188 -17.851562 64.382812 -0.878906 53.261719 -0.878906 C 42.140625 -0.878906 33.65625 -17.851562 33.65625 -40.679688 C 33.65625 -63.503906 42.140625 -80.476562 53.261719 -80.476562 Z M 53.261719 -80.476562 "/></g></g></g><g fill="#000000" fill-opacity="1"><g transform="translate(723.843079, 420.444568)"><g><path d="M 81.648438 -54.871094 C 81.648438 -75.796875 65.113281 -80.769531 44.191406 -80.769531 L 14.925781 -80.769531 C 12.582031 -80.769531 11.707031 -79.308594 11.707031 -76.964844 L 11.707031 -3.804688 C 11.707031 -1.464844 12.582031 0 14.925781 0 L 33.507812 0 C 35.847656 0 36.726562 -1.464844 36.726562 -3.804688 L 36.726562 -28.972656 L 44.191406 -28.972656 C 65.113281 -28.972656 81.648438 -33.945312 81.648438 -54.871094 Z M 36.726562 -78.722656 L 41.554688 -78.722656 C 51.359375 -78.722656 54.871094 -66.429688 54.871094 -54.871094 C 54.871094 -43.3125 51.359375 -31.019531 41.554688 -31.019531 L 36.726562 -31.019531 Z M 36.726562 -78.722656 "/></g></g></g><g fill="#000000" fill-opacity="1"><g transform="translate(812.807267, 420.444568)"><g><path d="M 15.949219 -80.769531 C 13.609375 -80.769531 12.730469 -79.308594 12.730469 -76.964844 L 12.730469 -3.804688 C 12.730469 -1.464844 13.609375 0 15.949219 0 L 34.53125 0 C 36.875 0 37.75 -1.464844 37.75 -3.804688 L 37.75 -76.964844 C 37.75 -79.308594 36.875 -80.769531 34.53125 -80.769531 Z M 11.707031 -102.132812 C 11.707031 -94.671875 17.707031 -88.671875 25.167969 -88.671875 C 32.628906 -88.671875 38.628906 -94.671875 38.628906 -102.132812 C 38.628906 -109.597656 32.628906 -115.59375 25.167969 -115.59375 C 17.707031 -115.59375 11.707031 -109.597656 11.707031 -102.132812 Z M 11.707031 -102.132812 "/></g></g></g><g fill="#000000" fill-opacity="1"><g transform="translate(867.531984, 420.444568)"><g><path d="M 52.238281 -76.964844 C 51.359375 -79.015625 49.457031 -80.769531 46.96875 -80.769531 L 39.507812 -80.769531 C 37.457031 -80.769531 35.410156 -79.015625 34.53125 -76.964844 L 1.757812 -3.804688 C 1.023438 -1.902344 1.757812 0 4.097656 0 L 25.167969 0 C 28.242188 0 29.410156 -1.609375 28.386719 -3.804688 L 17.558594 -27.949219 L 46.675781 -27.949219 L 57.503906 -3.804688 C 58.53125 -1.609375 60.140625 0 62.773438 0 L 82.671875 0 C 85.015625 0 85.746094 -1.902344 85.015625 -3.804688 Z M 45.800781 -29.996094 L 15.949219 -29.996094 L 30.726562 -63.796875 Z M 45.800781 -29.996094 "/></g></g></g></svg>